<svg xmlns="http://www.w3.org/2000/svg"  viewBox="0 0 64 64" width="512px" height="512px"><linearGradient id="Y-BKW3ozrRMtDtkNjDRP_a" x1="32" x2="32" y1="37" y2="59" gradientUnits="userSpaceOnUse"><stop offset="0" stop-color="#6dc7ff"/><stop offset="1" stop-color="#e6abff"/></linearGradient><path fill="url(#Y-BKW3ozrRMtDtkNjDRP_a)" d="M43.512,38.724c-1.161,0.595-1.59,1.979-1.731,3.242c0,0-0.26,3.257-0.479,4.313	c-0.405,1.952-1.164,3.896-2.302,5.43V48v-1v-1.473c0-0.961-0.487-1.866-1.315-2.443L36.846,42.5C35.448,41.526,33.748,41,32,41	s-3.448,0.526-4.846,1.5l-0.839,0.584C25.487,43.661,25,44.566,25,45.527V47v1v3.792c-1.235-1.557-1.904-3.515-2.302-5.512	c-0.262-1.312-0.479-4.313-0.479-4.313c-0.14-1.262-0.612-2.583-1.731-3.242L17,37c1,9,3,17,13,22h4c10-4,12-13,13-22L43.512,38.724	z M34,54.83V50h-4v4.813c-1.06-0.203-2.056-0.59-3-1.206V47h10v6.648C36.072,54.272,35.067,54.642,34,54.83z"/><linearGradient id="Y-BKW3ozrRMtDtkNjDRP_b" x1="31.973" x2="31.973" y1="5.953" y2="52" gradientUnits="userSpaceOnUse"><stop offset="0" stop-color="#6dc7ff"/><stop offset="1" stop-color="#e6abff"/></linearGradient><path fill="url(#Y-BKW3ozrRMtDtkNjDRP_b)" d="M47.319,14.106	c-5.864-7.868-13.63-8.184-15.346-8.152c-1.716-0.032-9.482,0.284-15.346,8.152C10,23,10,32,10,38s3,13,10,14c-5-11-3-21-3-21	c0.998-6.987,4.986-21.943,14.947-17.024c0,0.008,0,0.016,0,0.024c0.009-0.005,0.018-0.007,0.027-0.012	C31.982,13.993,31.991,13.995,32,14c0-0.008,0-0.016,0-0.024C41.96,9.057,45.949,24.013,46.947,31c0,0,2,10-3,21c7-1,10-8,10-14	S53.947,23,47.319,14.106z"/><linearGradient id="Y-BKW3ozrRMtDtkNjDRP_c" x1="32" x2="32" y1="4.961" y2="60" gradientUnits="userSpaceOnUse"><stop offset="0" stop-color="#1a6dff"/><stop offset="1" stop-color="#c822ff"/></linearGradient><path fill="url(#Y-BKW3ozrRMtDtkNjDRP_c)" d="M45.067,9.863	c-3.795-3.544-8.193-5.177-13.066-4.862c-4.885-0.323-9.273,1.316-13.069,4.862C12.108,16.235,9,27.36,9,35	c0,17.803,11.727,18.254,11.846,18.257c0.007,0,0.014,0,0.021,0c0.055,0,0.102-0.022,0.154-0.031	c1.008,1.371,2.135,2.579,3.355,3.555c0.306,0.244,0.583,0.478,0.847,0.701C26.891,58.889,28.208,60,32,60s5.109-1.111,6.778-2.519	c0.264-0.223,0.541-0.457,0.847-0.701c1.219-0.976,2.347-2.183,3.355-3.555c0.052,0.008,0.1,0.031,0.154,0.031	c0.007,0,0.014,0,0.021,0C43.273,53.254,55,52.803,55,35C55,27.36,51.892,16.235,45.067,9.863z M38.375,55.219	c-0.318,0.255-0.609,0.5-0.886,0.733C35.924,57.272,35.061,58,32,58s-3.924-0.728-5.489-2.048c-0.276-0.232-0.567-0.478-0.886-0.733	C21.136,51.628,18,44.547,18,37.996c-0.038-9.367,2.745-16.67,4.408-20.19c1.124-2.38,2.887-3.304,4.166-3.659	c1.697-0.472,3.52-0.216,4.871,0.685c0,0,0.001,0,0.001,0.001c0.11,0.073,0.233,0.123,0.361,0.148	c0.064,0.012,0.128,0.001,0.192,0.001c0.064,0,0.128,0.011,0.192-0.001c0.128-0.025,0.251-0.074,0.361-0.148	c0,0,0.001,0,0.002-0.001c1.35-0.901,3.17-1.156,4.871-0.685c1.279,0.355,3.042,1.278,4.166,3.659	C43.254,21.325,46.037,28.627,46,38C46,44.547,42.864,51.628,38.375,55.219z M44.4,51.048c2.237-3.864,3.6-8.575,3.6-13.044	c0.038-9.763-2.865-17.38-4.6-21.052c-1.13-2.391-3.062-4.071-5.44-4.731c-2.033-0.566-4.211-0.324-5.96,0.624	c-1.75-0.947-3.928-1.189-5.96-0.624c-2.379,0.66-4.311,2.34-5.44,4.731C18.865,20.625,15.961,28.243,16,38	c0,4.472,1.363,9.184,3.599,13.048C16.911,50.365,11,47.451,11,35c0-7.221,2.909-17.71,9.297-23.675	c3.394-3.168,7.305-4.623,11.635-4.328c0.022,0.001,0.042-0.009,0.064-0.009c0.025,0,0.047,0.011,0.072,0.009	c4.334-0.295,8.242,1.159,11.635,4.328C50.091,17.29,53,27.779,53,35C53,47.455,47.085,50.367,44.4,51.048z M42,30	c0,0.552-0.447,1-1,1h-1.092C39.964,31.157,40,31.324,40,31.5c0,0.828-0.672,1.5-1.5,1.5S37,32.328,37,31.5	c0-0.176,0.036-0.343,0.092-0.5H36c-0.553,0-1-0.448-1-1s0.447-1,1-1h5C41.553,29,42,29.448,42,30z M29,30c0,0.552-0.447,1-1,1	h-1.092C26.964,31.157,27,31.324,27,31.5c0,0.828-0.672,1.5-1.5,1.5S24,32.328,24,31.5c0-0.176,0.036-0.343,0.092-0.5H23	c-0.553,0-1-0.448-1-1s0.447-1,1-1h5C28.553,29,29,29.448,29,30z"/></svg>